<?xml version="1.0" encoding="UTF-8"?>
<svg xmlns="http://www.w3.org/2000/svg" id="a" viewBox="0 0 427.55 112.48">
  <defs>
    <style>.b{fill:#fff;}.c{fill:#bcfc12;}.d{fill:#1d1d1b;}</style>
  </defs>
  <path class="d" d="M426.92,52.45c-.28-1.82-1-3.67-2.13-5.49-.78-1.27-1.7-2.56-2.73-3.84-1.04-1.28-2.32-2.53-3.9-3.79,.15,0,.3,.01,.45,.01,2.45,0,4.75-1.3,6-3.44,.42-.72,.73-1.49,1-2.57,.18-.72,.32-1.61,.47-3,.16-1.56,.14-3.12-.08-4.62-.24-1.65-.79-3.34-1.68-5.18-1.01-2.09-2.47-3.91-4.33-5.42-1.68-1.36-3.81-2.5-6.53-3.5-2.57-.95-5.58-1.55-8.93-1.79-2.77-.2-5.41-.3-7.85-.3-2.12,0-4.09,.08-5.96,.23-.57-.01-1.16-.03-1.71-.03-5.53,0-10.18,.51-14.09,1.55-1.23-1.02-2.79-1.61-4.43-1.61h-17.91c-3.36,0-6.49,.45-9.32,1.35-2.89,.92-5.36,2.14-7.33,3.62-.5,.38-.99,.77-1.45,1.19-2.14-.85-4.51-1.49-7.08-1.93-4.94-2.74-11.31-4.12-19.03-4.12-4.98,0-9.45,.48-13.29,1.43-.76,.19-1.5,.43-2.23,.67-.61-.31-1.24-.56-1.92-.68-.22-.05-.57-.14-1.07-.27-1.08-.27-2.22-.54-3.42-.78-1.53-.32-3.24-.49-5.24-.52h-.49c-1.85,0-3.65,.17-5.35,.51-2.24,.45-4.47,1.41-6.62,2.83-2.28,1.51-4.15,3.51-5.57,5.92-.11,.18-.21,.37-.3,.56-.05,.11-.12,.24-.17,.35-.93-.98-1.97-1.85-3.11-2.59-2.14-1.39-4.35-2.33-6.57-2.81-1.12-.24-2.3-.39-3.51-.5-.04-.02-.07-.06-.11-.08-2.14-1.39-4.35-2.33-6.57-2.81-1.83-.39-3.8-.61-5.86-.65h-.62c-1.82,0-3.38,.12-4.79,.38-1.19,.22-2.89,.58-5.21,1.12-.04,0-.07,.03-.1,.04-.94-.32-1.89-.61-2.87-.88-2.23-.6-4.56-.97-6.9-1.1-1.92-.1-3.84-.19-5.76-.26-1.02-.04-2.03-.06-3.03-.06s-1.9,.02-2.83,.05h-2.74c-2.26,0-4.34,.29-6.24,.83-.99-.53-2.12-.83-3.28-.83h-17.91c-3.36,0-6.49,.45-9.32,1.35-2.89,.92-5.36,2.14-7.33,3.62-.31,.23-.6,.48-.89,.73-.15-.04-.27-.08-.42-.12-.2-.05-.4-.1-.6-.13-.73-.13-1.41-.22-2.12-.34-1.8-1.1-4.17-2.04-7.46-2.92-.2-.05-.4-.1-.6-.13-6.85-1.2-12.98-1.81-18.21-1.81-4.45,0-8.43,.44-11.78,1.29-6.03,1.49-12.68,4.66-17.44,11.13-1.42-1.53-2.91-2.98-4.5-4.34C85.53,8.36,73.72,1.81,60.34,.34c-2.07-.23-4.17-.34-6.24-.34C28.9,0,7.37,17.1,1.76,41.57c-.77,3.37-1.06,6.65-1.33,9.82-.11,1.31-.23,2.63-.38,3.94-.42,3.62,2.04,6.89,5.55,7.59,.56,2.63,2.6,4.76,5.33,5.34,1.15,11.41,6.85,21.7,15.42,28.82,6,7.08,14.25,12.29,23.81,14.33,3.3,.71,6.69,1.07,10.07,1.07,13.63,0,27.2-5.88,37.25-16.13,.43-.44,.85-.9,1.26-1.35,.07,.11,.14,.23,.22,.34,1.13,1.7,2.71,2.56,4.13,3.24,1.24,.59,2.68,1.08,4.42,1.5,.97,.23,2.15,.44,3.56,.63,.72,.52,1.48,.92,2.2,1.26,1.24,.59,2.68,1.08,4.42,1.5,1.62,.39,3.75,.71,6.73,.99,2.77,.26,6,.39,9.6,.39,4.18,0,8.19-.37,11.93-1.1,3.85-.76,7.53-1.95,10.94-3.55,3.89-1.83,7.04-4.28,9.39-7.29,2.34-3,3.88-6.57,4.6-10.58,.95,.21,2.02,.47,3.21,.77,1.57,.4,2.27,.83,2.5,.99,1.21,.87,2.64,1.32,4.08,1.32,1.08,0,2.17-.25,3.17-.76,2.33-1.19,3.79-3.58,3.79-6.2v-2.64c.34,.24,.68,.48,1.04,.7,1.74,1.09,3.35,1.87,4.9,2.38,1.39,.47,2.87,.82,4.4,1.05,.49,.07,.9,.13,1.27,.18,1.6,.96,3.09,1.68,4.52,2.16,1.39,.47,2.87,.82,4.4,1.05,1.35,.2,2.27,.32,2.75,.36,.67,.06,1.18,.08,1.52,.08h14.12c1.36,0,2.53-.04,3.56-.12,1.14-.09,2.54-.3,4.42-.67,2.04-.4,3.91-.96,5.56-1.66,.79-.34,1.58-.75,2.37-1.23,1.54,.47,3.19,.73,4.95,.73,.04,0,.09,0,.13,0,.75,.58,1.58,1.14,2.57,1.65,2.2,1.16,4.71,1.74,7.49,1.74,5.27,0,9.9-1.55,13.74-4.6,.03-.03,.06-.06,.09-.09-1.23,1.97-2.04,4.63-2.04,8.26,0,1.8,.23,3.43,.67,4.87,.46,1.48,1.07,2.73,1.83,3.72,.56,.73,1.28,1.35,2.05,1.92,.31,.38,.64,.74,1.01,1.07-.45,.11-.85,.24-1.18,.43-1.96,1.12-2.21,3.83-2.21,6.07,0,.52,.17,1.02,.48,1.43,.39,.6,.96,.91,1.48,1.16,.04,.02,.09,.03,.12,.05,.08,.18,.16,.36,.28,.52,.39,.6,.96,.91,1.48,1.16,.47,.22,1.01,.41,1.67,.57,.61,.15,1.46,.27,2.6,.38,1.07,.1,2.34,.15,3.75,.15,1.62,0,3.18-.14,4.63-.43,1.49-.29,2.91-.76,4.22-1.38,1.48-.7,2.67-1.63,3.56-2.77,.89-1.16,1.48-2.53,1.75-4.08,.02-.13,.02-.27,.04-.41,.03,0,.06,.02,.09,.03,.52,.1,1.15,.25,1.89,.44,.66,.17,.98,.36,1.12,.46,.41,.3,.89,.45,1.38,.45,.37,0,.73-.08,1.07-.26,.79-.4,1.28-1.21,1.28-2.09v-6.27c.07,.28,.12,.57,.21,.83,.34,.93,.77,1.73,1.29,2.35,.48,.58,1.07,1.08,1.73,1.51,.05,.07,.09,.16,.15,.22,.51,.61,1.12,1.15,1.83,1.59,.65,.4,1.27,.71,1.85,.9,.53,.18,1.09,.31,1.66,.4,.52,.08,.88,.12,1.06,.14,.25,.02,.44,.03,.57,.03h5.57c.53,0,.99-.02,1.38-.05,.43-.03,.98-.12,1.7-.26,.78-.15,1.49-.36,2.12-.64,.09-.04,.17-.1,.26-.14v1.5c0,1.86,.36,3.25,1.11,4.26,.55,.74,1.14,1.17,1.71,1.44,.06,.09,.11,.2,.17,.29,1.18,1.59,2.61,1.82,3.36,1.82,.48,0,1.09,.03,1.82,.09,.4,.03,.64,.12,.73,.19,.41,.3,.89,.45,1.38,.45,.36,0,.73-.08,1.07-.26,.79-.4,1.28-1.21,1.28-2.09v-6.61c.64,.06,1.34,.08,2.09,.08,1.59,0,3.13-.22,4.57-.64,1.37-.41,2.68-1.07,3.9-1.92,.35,.37,.83,.61,1.36,.69,.24,.98,1.06,1.73,2.11,1.79,.39,.02,.77,.03,1.13,.03,1.85,0,3.34-.27,4.53-.84,1.12-.53,2.98-1.93,2.86-5.31v-10.71c.53-.1,1.05-.15,1.54-.15,.03,0,.05,0,.07,0,.07,.96,.13,2.42,.11,4.67v4.46c0,2.48,1.02,3.91,1.88,4.67,.31,.28,.66,.51,1.03,.72,.28,.41,.56,.77,.85,1.02,1.17,1.04,2.8,1.57,4.84,1.57,.62,0,1.29-.05,1.99-.14,.14-.02,.27-.05,.4-.09,.18,.06,.37,.1,.57,.11,.39,.02,.77,.03,1.13,.03,1.85,0,3.34-.27,4.54-.84,.79-.37,1.95-1.21,2.52-2.86,.83,.89,1.82,1.64,2.99,2.23,1.21,.61,2.4,1.05,3.54,1.32,1.12,.26,2.42,.42,3.86,.47,.51,.02,.98,.02,1.43,.02,.77,0,1.47-.02,2.07-.07,.91-.07,1.93-.18,3.07-.31,.75-.09,1.39-.53,1.75-1.16,.62,.39,1.37,.72,2.3,.98,1,.29,2.16,.44,3.46,.44,4.46,0,7.73-.57,9.99-1.74,2.71-1.4,4.14-3.82,4.14-7.09,0-.04,0-.09,0-.13,.08-.53,.05-1.08-.11-1.69-.07-.29-.15-.6-.23-.94-.15-.65-.47-1.31-.93-1.95-.34-.47-.73-.94-1.15-1.4-.39-.42-.9-.83-1.47-1.24-.14-.16-.26-.33-.41-.5-.12-.13-.28-.25-.41-.38,.28,.02,.59,.04,.83,.04,.02,0,.05,0,.07,0,.87,0,1.67-.48,2.07-1.24,.19-.35,.27-.69,.32-1,.05-.27,.08-.62,.1-1.14,.02-.58-.03-1.16-.15-1.72-.13-.6-.38-1.21-.76-1.88-.43-.74-1.01-1.38-1.74-1.89-.13-.09-.29-.16-.43-.24-.04-.05-.08-.11-.12-.16,6.37-3.34,10.19-9.28,10.74-16.98,0,0,.03-.37,.03-.45,.32-1.42,.32-2.93,.01-4.62-.14-.74-.27-1.52-.4-2.36Z"></path>
  <g>
    <path class="b" d="M152.39,67.07V24.8c0-1.84-.58-3.16-1.74-3.94-1.16-.78-3.14-1.55-5.94-2.3-11.67-2.05-20.71-2.25-27.12-.61-12.42,3.07-18.63,12.25-18.63,27.53,0,3.96,.48,7.47,1.43,10.54,.95,3.07,2.18,5.58,3.68,7.52,1.5,1.94,3.41,3.58,5.73,4.91,2.32,1.33,4.59,2.29,6.81,2.87,2.22,.58,4.79,.97,7.73,1.18,2.93,.2,5.51,.24,7.73,.1,2.22-.14,4.72-.34,7.52-.61,1.36,2.66,.51,4.79-2.56,6.4-3.07,1.6-7.47,2.41-13.2,2.41-.82-.07-1.98-.17-3.48-.31-7.1-.68-11.52-.53-13.26,.46-1.74,.99-2.61,4.38-2.61,10.18,.07,.07,.15,.19,.26,.36,.1,.17,.55,.44,1.33,.82,.78,.37,1.81,.72,3.07,1.02,1.26,.31,3.17,.58,5.73,.82,2.56,.24,5.54,.36,8.96,.36,3.75,0,7.28-.32,10.59-.97,3.31-.65,6.41-1.66,9.31-3.02,2.9-1.37,5.18-3.12,6.86-5.27,1.67-2.15,2.76-4.71,3.28-7.68,.51-2.97,.05-6.4-1.38-10.29,0-.07-.04-.14-.1-.2Zm-15.15-9.11c-3.75,.48-6.89,.79-9.42,.92-2.53,.14-4.62-.08-6.29-.67-1.67-.58-2.95-1.16-3.84-1.74-.89-.58-1.54-1.74-1.94-3.48-.41-1.74-.65-3.22-.72-4.45-.07-1.23-.1-3.31-.1-6.24,0-1.71,.19-3.21,.56-4.5,.37-1.3,.83-2.35,1.38-3.17,.55-.82,1.33-1.5,2.35-2.05,1.02-.55,1.96-.95,2.81-1.23,.85-.27,2-.46,3.43-.56s2.61-.14,3.53-.1c.92,.03,2.2,.07,3.84,.1,1.64,.03,2.9,.05,3.79,.05h.61v27.12Z"></path>
    <path class="b" d="M308.35,16.71c-4.44,0-8.31,.41-11.62,1.23-3.31,.82-6.31,2.22-9.01,4.2-.58,.43-1.13,.91-1.65,1.42,1.21-1.86,2.42-3.71,3.64-5.52-.07,0-.6-.12-1.59-.38-.99-.25-2.03-.49-3.12-.72-1.09-.23-2.41-.35-3.94-.38-1.54-.02-2.99,.1-4.35,.38-1.37,.28-2.75,.88-4.15,1.81-1.4,.93-2.54,2.15-3.43,3.66-1.78,3.77-4.95,9.9-9.52,18.39,0-.05-.65-1.03-1.94-2.94-1.3-1.91-2.81-4.3-4.55-7.16-1.74-2.86-3.09-5.3-4.04-7.31-.89-1.56-2.05-2.8-3.48-3.73-1.43-.93-2.85-1.55-4.25-1.85-1.4-.3-2.9-.46-4.5-.49-1.6-.02-2.95,.06-4.04,.26-1.09,.2-2.73,.55-4.91,1.06,.65,.84,1.44,1.87,2.34,3.07-1.12-.93-2.32-1.68-3.61-2.23-1.6-.68-3.29-1.26-5.07-1.74-1.78-.48-3.6-.77-5.48-.87-1.88-.1-3.75-.19-5.63-.26-1.88-.07-3.7-.07-5.48,0h-2.87c-1.98,0-3.7,.27-5.17,.82-1.47,.55-2.63,1.21-3.48,2-.28,.26-.53,.54-.77,.83,0-.49,0-.99-.05-1.49-.1-1.3-.12-2.01-.05-2.15h-17.91c-2.66,0-5.07,.34-7.22,1.02-2.15,.68-3.91,1.54-5.27,2.56-1.37,1.02-2.53,2.22-3.48,3.58-.96,1.37-1.67,2.68-2.15,3.94-.48,1.26-.82,2.53-1.02,3.79-.2,1.26-.32,2.25-.36,2.97-.04,.72-.05,1.28-.05,1.69v27.43c0,2.53,.55,4.45,1.64,5.78,1.09,1.33,2.34,2.13,3.74,2.41,1.4,.27,3.1,.67,5.12,1.18,2.01,.51,3.63,1.21,4.86,2.1V42.3c0-2.59,.2-4.64,.61-6.14,.41-1.5,1.23-2.66,2.46-3.48s2.63-1.33,4.2-1.54c1.57-.2,3.79-.31,6.65-.31,1.98,0,3.6-.41,4.86-1.23,.29-.19,.56-.4,.81-.62,0,.52,.02,.9,.07,1.13,.07,.34,.1,.61,.1,.82,2.39-.95,6.09-1.67,11.11-2.15,5.02-.48,9.76-.31,14.23,.51,4.47,.82,6.7,2.39,6.7,4.71,0,1.64-1.07,2.85-3.22,3.63-2.15,.79-6.19,1.18-12.13,1.18-3.41,0-6.31,.27-8.7,.82-2.39,.55-4.55,1.52-6.5,2.92-1.94,1.4-3.4,3.38-4.35,5.94-.96,2.56-1.43,5.72-1.43,9.47,0,2.12,.31,4.03,.92,5.73,.61,1.71,1.36,3.09,2.25,4.15,.89,1.06,1.96,1.98,3.22,2.76,1.26,.79,2.41,1.35,3.43,1.69,1.02,.34,2.1,.6,3.22,.77,1.13,.17,1.89,.27,2.3,.31,.41,.04,.72,.05,.92,.05h14.13c1.16,0,2.17-.03,3.02-.1,.85-.07,2.06-.26,3.63-.56,1.57-.31,2.95-.72,4.15-1.23,1.19-.51,2.47-1.31,3.84-2.41,1.36-1.09,2.51-2.35,3.43-3.79,.92-1.43,1.69-3.29,2.3-5.58,.61-2.29,.92-4.83,.92-7.63v-11.26c0-3-.27-5.7-.82-8.09-.31-1.37-.71-2.6-1.17-3.72,1.53,2.16,3.38,4.79,5.55,7.93,4.16,6.01,7.47,11.22,9.93,15.64,.14,.3,.27,.58,.41,.83l-11.41,16.62,.61,.98c.41,.6,1.21,1.22,2.41,1.85,1.19,.63,2.61,.94,4.25,.94,3.68,0,6.82-1.03,9.42-3.09l8.96-14.36h-13.72c1.36,0,2.54-.04,3.53-.11,.99-.08,2.35-.31,4.09-.72,1.74-.4,3.28-.94,4.61-1.62,1.33-.68,2.76-1.7,4.3-3.05,1.54-1.36,2.85-2.96,3.94-4.82,3.01-5.39,6.09-10.61,9.22-15.68-.05,.13-.11,.25-.16,.39-1.4,3.79-2.1,8.41-2.1,13.87,0,10.92,2.56,18.6,7.68,23.03,5.12,4.44,13.14,6.65,24.05,6.65,7.92,0,13.19-1.23,15.81-3.68,2.63-2.46,3.8-6.65,3.53-12.59-.41,0-2,.2-4.76,.61-2.76,.41-5.7,.77-8.8,1.07-3.11,.31-6.28,.44-9.52,.41-3.24-.03-5.92-.58-8.03-1.64-2.12-1.06-3.17-2.64-3.17-4.76,2.11-.82,4.66-1.4,7.63-1.74,2.97-.34,5.73-.46,8.29-.36,2.56,.1,5.15,.02,7.78-.26,2.63-.27,4.88-.72,6.76-1.33,1.88-.61,3.39-1.82,4.55-3.63,1.16-1.81,1.74-4.21,1.74-7.22,0-7.85-2-13.56-5.99-17.14-3.99-3.58-10.22-5.37-18.68-5.37Zm-85.72,35.41c-.04,1.23-.17,2.51-.41,3.84-.24,1.33-.53,2.2-.87,2.61-.34,.41-.94,.85-1.79,1.33-.85,.48-1.78,.73-2.76,.77-.99,.03-2.41,.05-4.25,.05-4.5,0-7.51-.44-9.01-1.33-1.5-.89-2.25-2.22-2.25-3.99,0-1.5,1.04-2.66,3.12-3.48,2.08-.82,4.79-1.23,8.14-1.23,1.91,0,3.75-.39,5.53-1.18,1.77-.78,2.92-1.42,3.43-1.89,.51-.48,.9-.89,1.18-1.23,0,2.59-.02,4.5-.05,5.73Zm92.27-12.64c-1.78,.92-3.8,1.4-6.09,1.43-2.29,.04-4.74,.19-7.37,.46-2.63,.27-4.52,.82-5.68,1.64-1.02-6.62,1.02-10.85,6.14-12.69,3.68-1.36,7.47-1.23,11.36,.41,2.8,1.16,4.2,2.63,4.2,4.4,.07,1.98-.79,3.43-2.56,4.35Z"></path>
    <path class="b" d="M412.8,56.27c-.15-.8-.29-1.65-.43-2.55-.14-.9-.53-1.87-1.18-2.91-.64-1.04-1.39-2.08-2.24-3.14-.85-1.05-2.04-2.15-3.56-3.28-1.53-1.14-3.24-2.2-5.16-3.19-1.91-.99-4.29-1.99-7.12-2.98-2.84-.99-5.97-1.88-9.4-2.68-1.15-.22-1.79-.85-1.92-1.88-.15-1.65,1.09-2.76,3.73-3.32,.69-.15,1.49-.23,2.38-.24,3.49,.05,5.99,.14,7.52,.29,1.53,.15,3.97,.49,7.31,1.04,3.35,.55,6.07,.94,8.18,1.16,.08-.13,.16-.38,.26-.75,.09-.37,.19-1.05,.3-2.03,.1-.98,.09-1.94-.05-2.88-.14-.93-.49-1.99-1.05-3.15-.57-1.17-1.38-2.19-2.45-3.05-1.07-.86-2.58-1.66-4.55-2.38-1.97-.72-4.31-1.18-7.03-1.38-10.21-.74-17.82-.04-22.83,2.1-1.09,.46-2.05,1.03-2.92,1.67,.01-.64,0-1.3-.06-1.96-.1-1.3-.12-2.01-.05-2.15h-17.91c-2.66,0-5.07,.34-7.22,1.02-2.15,.68-3.91,1.54-5.27,2.56-1.37,1.02-2.53,2.22-3.48,3.58-.96,1.37-1.67,2.68-2.15,3.94-.48,1.26-.82,2.53-1.02,3.79-.2,1.26-.32,2.25-.36,2.97-.04,.72-.05,1.28-.05,1.69v27.43c0,2.53,.55,4.45,1.64,5.78,1.09,1.33,2.34,2.13,3.74,2.41,1.4,.27,3.1,.67,5.12,1.18,2.01,.51,3.63,1.21,4.86,2.1V42.3c0-2.59,.2-4.64,.61-6.14,.41-1.5,1.23-2.66,2.46-3.48s2.63-1.33,4.2-1.54c1.57-.2,3.79-.31,6.65-.31,1.18,0,2.22-.16,3.15-.46-.02,.19-.06,.36-.07,.56l-.03,.41c-.13,2.8,.15,5.24,.85,7.35,.7,2.1,1.64,3.76,2.82,4.98,1.18,1.21,2.76,2.3,4.74,3.27,1.98,.96,3.85,1.68,5.59,2.15,1.74,.47,3.94,1.07,6.59,1.81,2.65,.74,4.84,1.44,6.57,2.12,1.14,.36,2.13,.82,2.98,1.4,.85,.57,1.44,1.18,1.77,1.82,.33,.64,.39,1.26,.17,1.86-.22,.6-.95,1.13-2.22,1.58-1.26,.46-2.96,.71-5.08,.76-3.49-.05-5.99-.14-7.52-.29-1.53-.14-3.97-.49-7.31-1.04-3.35-.55-6.07-.93-8.18-1.15-.08,.13-.17,.38-.26,.75-.1,.37-.2,1.05-.3,2.03-.11,.98-.09,1.94,.05,2.88,.14,.93,.49,1.98,1.06,3.15,.56,1.17,1.38,2.19,2.45,3.05,1.07,.86,2.58,1.66,4.55,2.38,1.96,.72,4.31,1.18,7.03,1.38,10.21,.74,17.82,.04,22.83-2.1,5.01-2.13,7.73-6.09,8.14-11.88v-.2c-.03-.28,.01-.67,.15-1.17,.14-.5,.13-1.15-.01-1.95Z"></path>
  </g>
  <g>
    <g>
      <path class="c" d="M287.74,98.27c-1.1,.11-2.09,.19-2.97,.24s-1.89,.04-3.05-.04c-1.16-.08-2.17-.24-3.05-.47-.87-.23-1.77-.61-2.68-1.13-.91-.53-1.67-1.17-2.26-1.94-.59-.77-1.08-1.76-1.45-2.98-.38-1.22-.57-2.61-.57-4.17,0-6.05,2.45-9.69,7.34-10.9,2.53-.65,6.09-.57,10.69,.24,1.1,.3,1.88,.6,2.34,.91,.46,.31,.69,.83,.69,1.56v16.74s.04,.05,.04,.08c.57,1.54,.75,2.9,.54,4.07-.2,1.18-.63,2.19-1.29,3.04-.66,.85-1.56,1.55-2.7,2.09-1.14,.54-2.37,.94-3.67,1.2-1.31,.26-2.7,.38-4.18,.38-1.35,0-2.52-.05-3.53-.14-1.01-.1-1.76-.2-2.26-.32-.5-.12-.9-.26-1.21-.41-.31-.15-.48-.26-.52-.32-.04-.07-.07-.12-.1-.14,0-2.3,.34-3.64,1.03-4.03,.69-.39,2.43-.45,5.22-.18,.59,.05,1.05,.09,1.37,.12,2.26,0,3.99-.32,5.2-.95,1.21-.64,1.55-1.48,1.01-2.53Zm-.93-16.29h-.24c-.35,0-.85,0-1.49-.02-.65-.01-1.15-.03-1.51-.04s-.83,0-1.39,.04c-.56,.04-1.02,.12-1.35,.22-.34,.11-.71,.27-1.11,.49-.4,.22-.71,.49-.93,.81-.22,.32-.4,.74-.54,1.26-.15,.51-.22,1.11-.22,1.78,0,1.16,.01,1.99,.04,2.47,.03,.49,.12,1.07,.28,1.76,.16,.69,.42,1.15,.77,1.38,.35,.23,.85,.46,1.51,.69,.66,.23,1.49,.32,2.48,.26,.99-.05,2.23-.17,3.71-.36v-10.74Z"></path>
      <path class="c" d="M308.92,76.35c-.03,.05-.02,.34,.02,.85,.04,.51,.03,1.01-.02,1.48-.05,.47-.16,.98-.32,1.52-.16,.54-.49,.97-.99,1.3-.5,.32-1.14,.49-1.92,.49-1.13,0-2,.04-2.62,.12s-1.17,.28-1.65,.61c-.48,.32-.81,.78-.97,1.38-.16,.59-.24,1.41-.24,2.43v12.97c-.48-.35-1.12-.63-1.92-.83s-1.47-.36-2.02-.47c-.55-.11-1.04-.43-1.47-.95-.43-.53-.65-1.29-.65-2.29v-10.86c0-.16,0-.38,.02-.67,.01-.28,.06-.67,.14-1.17,.08-.5,.21-1,.4-1.5,.19-.5,.47-1.02,.85-1.56,.38-.54,.83-1.01,1.37-1.42s1.23-.74,2.08-1.01c.85-.27,1.8-.41,2.84-.41h7.06Z"></path>
      <path class="c" d="M308.19,82.02c0-.08-.01-.19-.04-.32-.03-.13-.03-.4-.02-.79,.01-.39,.05-.76,.12-1.11s.2-.75,.4-1.2c.2-.45,.47-.82,.81-1.13,.34-.31,.79-.57,1.37-.79,.58-.22,1.26-.32,2.04-.32h1.13c.7-.03,1.42-.03,2.16,0,.74,.03,1.48,.06,2.22,.1,.74,.04,1.46,.16,2.16,.34,.7,.19,1.37,.42,2,.69,.63,.27,1.21,.66,1.73,1.16,.52,.5,.98,1.07,1.37,1.72,.39,.65,.69,1.45,.91,2.39,.22,.95,.32,2.01,.32,3.2v4.46c0,1.11-.12,2.11-.36,3.02-.24,.91-.55,1.64-.91,2.21-.36,.57-.81,1.07-1.35,1.5-.54,.43-1.04,.75-1.51,.95-.47,.2-1.02,.37-1.63,.49s-1.1,.2-1.43,.22c-.34,.03-.73,.04-1.19,.04h-5.57c-.08,0-.2,0-.36-.02-.16-.01-.46-.05-.91-.12-.44-.07-.87-.17-1.27-.3-.4-.14-.85-.36-1.35-.67-.5-.31-.92-.68-1.27-1.09-.35-.42-.65-.97-.89-1.64-.24-.68-.36-1.43-.36-2.27,0-1.49,.19-2.74,.56-3.75,.38-1.01,.95-1.8,1.71-2.35,.77-.55,1.62-.94,2.56-1.16,.94-.22,2.08-.32,3.43-.32,2.34,0,3.93-.16,4.78-.47,.85-.31,1.27-.79,1.27-1.44,0-.92-.88-1.54-2.64-1.86-1.76-.32-3.63-.39-5.61-.2-1.98,.19-3.44,.47-4.38,.85Zm12.79,6.12c-.11,.14-.26,.3-.46,.49-.2,.19-.65,.44-1.35,.75-.7,.31-1.43,.47-2.18,.47-1.32,0-2.39,.16-3.21,.49-.82,.32-1.23,.78-1.23,1.38,0,.7,.3,1.23,.89,1.58,.59,.35,1.78,.53,3.55,.53,.73,0,1.28,0,1.68-.02,.39-.01,.75-.11,1.09-.3,.34-.19,.57-.36,.7-.53,.13-.16,.25-.51,.34-1.03,.09-.53,.15-1.03,.16-1.52,.01-.49,.02-1.24,.02-2.27Z"></path>
      <path class="c" d="M334.21,107.8c-.48-.35-1.12-.56-1.92-.63-.79-.07-1.47-.1-2.02-.1s-1.04-.29-1.47-.87c-.43-.58-.65-1.53-.65-2.86v-23.91s.15-.18,.38-.47c.23-.28,.44-.51,.62-.67,.19-.16,.54-.39,1.05-.69,.51-.3,1.07-.53,1.69-.69,.62-.16,1.45-.31,2.5-.45,1.05-.13,2.23-.2,3.55-.2,4.14,0,7.11,.9,8.92,2.7,1.8,1.8,2.7,4.79,2.7,8.98,0,2.03-.32,3.78-.97,5.27-.65,1.49-1.51,2.63-2.6,3.42-1.09,.8-2.25,1.38-3.47,1.74s-2.52,.55-3.89,.55c-1.85,0-3.33-.19-4.44-.57v9.44Zm0-20.26v5.75c.43,.14,.89,.24,1.39,.32,.5,.08,1.12,.15,1.88,.2,.75,.05,1.45-.03,2.1-.24,.65-.22,1.26-.53,1.86-.93,.59-.41,1.06-1.05,1.41-1.95,.35-.89,.52-1.96,.52-3.2,0-1.03-.17-1.92-.5-2.67-.34-.76-.73-1.34-1.17-1.74s-1.03-.71-1.75-.91-1.33-.32-1.82-.37c-.48-.04-1.09-.02-1.82,.06-.73,.08-1.17,.14-1.33,.16-.16,.03-.4,.08-.73,.16h-.04s-.03,1.78,0,5.35Z"></path>
      <path class="c" d="M356.76,77.12c1.32-.54,3.52-.81,6.62-.81,1.51,0,2.8,.26,3.87,.77,1.07,.51,1.85,1.1,2.34,1.76s.85,1.42,1.11,2.27c.26,.85,.4,1.49,.42,1.9,.03,.42,.03,.78,0,1.07v14.75c-4.03,.54-6.05-.72-6.05-3.77v-4.46c.03-4.03-.16-6.48-.57-7.35s-1.67-1.34-3.79-1.4c-1.32,0-2.64,.24-3.95,.73v12.48c.05,1.62-.45,2.68-1.51,3.18-1.06,.5-2.58,.7-4.54,.59v-31.61c.48,.35,1.12,.56,1.92,.63,.79,.07,1.47,.1,2.02,.1s1.04,.29,1.47,.87,.65,1.53,.65,2.86v5.43Z"></path>
      <path class="c" d="M378.58,80.4c0-1.32-.22-2.28-.65-2.86-.43-.58-.92-.87-1.47-.87s-1.22-.03-2.02-.1c-.79-.07-1.43-.28-1.92-.63v22.9c1.96,.11,3.48-.09,4.54-.59,1.06-.5,1.57-1.56,1.51-3.18v-14.67Z"></path>
      <path class="c" d="M397.7,77.12v.16c.35,3.13-.71,4.7-3.19,4.7-.3,0-.79,0-1.47-.02-.69-.01-1.2-.02-1.53-.02s-.8,.03-1.39,.1-1.05,.17-1.37,.3c-.32,.14-.69,.34-1.09,.63-.4,.28-.71,.63-.93,1.03-.22,.41-.4,.93-.55,1.58-.15,.65-.22,1.38-.22,2.19s.07,1.47,.2,2.07c.13,.59,.3,1.09,.5,1.5s.5,.75,.91,1.03c.4,.28,.81,.51,1.21,.67,.4,.16,.95,.28,1.63,.36,.69,.08,1.32,.13,1.9,.14,.58,.01,1.34,.02,2.28,.02,.38,0,.71,.05,.99,.14,.28,.1,.52,.22,.73,.36,.2,.15,.38,.34,.52,.57,.15,.23,.26,.46,.34,.69s.14,.48,.18,.75c.04,.27,.06,.52,.06,.75s0,.47-.02,.71c-.01,.24-.03,.45-.04,.61-.01,.16-.05,.39-.1,.69-1.1,.13-2.09,.24-2.97,.3-.87,.07-1.96,.08-3.25,.04-1.29-.04-2.42-.18-3.39-.41-.97-.23-1.98-.61-3.02-1.13-1.05-.53-1.92-1.2-2.6-2.03-.69-.82-1.25-1.9-1.7-3.24-.44-1.34-.67-2.87-.67-4.6,0-9.05,5.51-12.68,16.54-10.9,.38,.05,.87,.14,1.49,.24Z"></path>
      <path class="c" d="M415.37,82.06c-.83-.03-1.92-.1-3.25-.22-1.33-.12-2.3-.19-2.9-.2-.61-.01-1.59,.02-2.97,.1-.35,.03-.66,.08-.93,.16-1.02,.3-1.48,.77-1.37,1.42,.08,.41,.35,.64,.81,.69,1.37,.22,2.63,.48,3.77,.79,1.14,.31,2.1,.64,2.88,.97,.78,.34,1.49,.71,2.12,1.11s1.13,.8,1.49,1.2c.36,.39,.69,.78,.97,1.18s.46,.76,.55,1.11c.08,.35,.16,.68,.24,.99,.08,.31,.1,.57,.06,.77-.04,.2-.05,.36-.02,.47v.08c0,2.3-.96,3.94-2.86,4.92-1.91,.99-4.88,1.48-8.92,1.48-1.08,0-2.01-.11-2.8-.34-.79-.23-1.41-.5-1.85-.81-.44-.31-.79-.69-1.05-1.13-.26-.45-.42-.85-.5-1.22-.08-.37-.11-.74-.1-1.13,.01-.39,.03-.66,.06-.81,.03-.15,.05-.25,.08-.3,.83,.03,1.92,.1,3.25,.22,1.33,.12,2.3,.19,2.9,.2,.6,.01,1.59-.02,2.97-.1,.83-.08,1.49-.23,1.98-.45,.48-.22,.76-.45,.83-.69,.07-.24,.03-.49-.12-.73-.15-.24-.4-.47-.75-.67s-.75-.36-1.21-.47c-.7-.22-1.58-.43-2.64-.65-1.06-.22-1.94-.39-2.64-.53-.7-.13-1.45-.36-2.26-.69-.81-.32-1.46-.71-1.96-1.16s-.91-1.07-1.25-1.88-.52-1.77-.54-2.88v-.16c0-2.3,.95-3.94,2.86-4.92,1.91-.99,4.88-1.48,8.92-1.48,1.08,0,2.01,.11,2.8,.34s1.41,.5,1.86,.81c.44,.31,.79,.69,1.05,1.13,.25,.45,.42,.85,.5,1.22,.08,.37,.11,.74,.1,1.13-.01,.39-.03,.66-.06,.81-.03,.15-.05,.25-.08,.3Z"></path>
    </g>
    <g>
      <path class="c" d="M93.9,58.04c-1.15-3.7-1.74-7.93-1.74-12.56,0-5.89,.83-10.81,2.23-14.92-7.15-12.62-19.89-21.65-34.81-23.29C35.47,4.61,13.92,19.66,8.54,43.13c-.97,4.23-1.07,8.67-1.58,13.01l1.04,.13c.12-.5,.26-.99,.37-1.49,4.71-22.3,24.09-37.86,46.47-37.29,19.43,.5,34.84,16.12,35.11,35.6,.27,19.43-14.8,35.46-34.23,36.42-15.01,.74-27.18-10.31-27.52-25.01-.35-14.83,11.38-26.48,26.53-26.4,6.44,.04,12.88,0,19.94,0-.66-.94-.88-1.34-1.19-1.68-7.29-8.03-16.36-10.18-26.71-8.08-16.92,3.44-28.96,18.07-29.11,35.38-.14,17.01,11.87,31.96,28.54,35.53,22.7,4.86,45.38-10.27,52.26-31.91-1.87-2.52-3.4-5.65-4.54-9.31Z"></path>
      <path class="c" d="M57.01,68.63c-8.06,1.51-13.74-2.09-17.71-9.47-3.42,9.96,4.03,20.03,14.36,20.26,15.58,.34,27.96-13.48,26.05-28.98-.21-1.73-.87-2.21-2.51-2.2-7.79,.06-15.58-.06-23.36,.11-1.35,.03-3.32,.74-3.86,1.75-.85,1.57-1.21,3.77-.87,5.52,.4,2.06,2.3,3.11,4.57,3.11,4.78-.02,9.56,0,14.8,0-2.37,5.61-6.08,8.9-11.47,9.91Z"></path>
    </g>
  </g>
</svg>
